<svg width="92" height="45" viewBox="0 0 92 45" fill="none" xmlns="http://www.w3.org/2000/svg">
<path d="M23.2288 44L12.3488 24.992C11.6235 25.8027 10.8768 26.6133 10.1088 27.424C9.3835 28.2347 8.6155 29.0667 7.80483 29.92V44H0.12483V0.48H7.80483V21.152C11.0475 17.44 13.8208 13.92 16.1248 10.592C18.4288 7.22133 20.4128 3.85067 22.0768 0.48H30.4608C28.6262 4.14933 26.6635 7.62666 24.5728 10.912C22.5248 14.1547 20.3488 17.1627 18.0448 19.936L32.5088 44H23.2288Z" fill="#004FFF"/>
<path d="M48.4223 44.324C46.8383 44.324 45.3983 44.036 44.1023 43.46C42.8063 42.884 41.7863 42.092 41.0423 41.084C40.2983 40.052 39.9263 38.888 39.9263 37.592V32.804C39.9263 31.484 40.2863 30.284 41.0063 29.204C41.7263 28.1 42.7343 27.236 44.0303 26.612C45.3263 25.988 46.7903 25.676 48.4223 25.676C50.0543 25.676 51.5183 25.988 52.8143 26.612C54.1103 27.236 55.1183 28.1 55.8383 29.204C56.5583 30.284 56.9183 31.484 56.9183 32.804V37.592C56.9183 38.888 56.5463 40.052 55.8023 41.084C55.0583 42.092 54.0383 42.884 52.7423 43.46C51.4463 44.036 50.0063 44.324 48.4223 44.324ZM48.4223 40.076C49.5503 40.076 50.4263 39.824 51.0503 39.32C51.6743 38.816 51.9863 38.12 51.9863 37.232V33.056C51.9863 32.12 51.6623 31.364 51.0143 30.788C50.3903 30.212 49.5263 29.924 48.4223 29.924C47.3183 29.924 46.4423 30.212 45.7943 30.788C45.1703 31.364 44.8583 32.12 44.8583 33.056V37.232C44.8583 38.12 45.1703 38.816 45.7943 39.32C46.4183 39.824 47.2943 40.076 48.4223 40.076ZM68.748 44.324C67.476 44.324 66.324 44.048 65.292 43.496C64.26 42.92 63.444 42.14 62.844 41.156C62.244 40.148 61.944 39.02 61.944 37.772V32.228C61.944 30.98 62.256 29.864 62.88 28.88C63.528 27.872 64.416 27.092 65.544 26.54C66.672 25.964 67.92 25.676 69.288 25.676C70.104 25.676 70.98 25.844 71.916 26.18C72.876 26.516 73.668 26.984 74.292 27.584L74.436 27.404C74.316 27.212 74.052 26.972 73.644 26.684V21.716C73.644 20.708 74.052 19.916 74.868 19.34C75.708 18.764 76.968 18.476 78.648 18.476V41.048C78.648 41.984 78.276 42.764 77.532 43.388C76.788 44.012 75.648 44.324 74.112 44.324V42.38C74.4 42.02 74.628 41.696 74.796 41.408L74.616 41.264C73.848 42.296 73.02 43.064 72.132 43.568C71.268 44.072 70.14 44.324 68.748 44.324ZM70.296 40.076C71.304 40.076 72.12 39.848 72.744 39.392C73.392 38.912 73.716 38.312 73.716 37.592V32.408C73.716 31.712 73.392 31.124 72.744 30.644C72.12 30.164 71.304 29.924 70.296 29.924C69.192 29.924 68.34 30.152 67.74 30.608C67.164 31.064 66.876 31.712 66.876 32.552V37.412C66.876 38.276 67.164 38.936 67.74 39.392C68.34 39.848 69.192 40.076 70.296 40.076ZM88.7041 24.308C87.7921 24.308 87.0241 24.044 86.4001 23.516C85.8001 22.964 85.5001 22.256 85.5001 21.392C85.5001 20.528 85.8001 19.832 86.4001 19.304C87.0241 18.752 87.7921 18.476 88.7041 18.476C89.6161 18.476 90.3721 18.752 90.9721 19.304C91.5961 19.832 91.9081 20.528 91.9081 21.392C91.9081 22.256 91.5961 22.964 90.9721 23.516C90.3721 24.044 89.6161 24.308 88.7041 24.308ZM86.2201 28.556C86.2201 27.524 86.6281 26.792 87.4441 26.36C88.2601 25.904 89.4961 25.676 91.1521 25.676V41.444C91.1521 42.476 90.7441 43.22 89.9281 43.676C89.1121 44.108 87.8761 44.324 86.2201 44.324V28.556Z" fill="black"/>
</svg>
